<svg xmlns="http://www.w3.org/2000/svg" viewBox="0 0 1170.80268 1245.47464" width="1170.80268mm" height="1245.47464mm" role="img" aria-label="实际二维纸样缩略图"><rect width="100%" height="100%" fill="#18252d"/><g data-panel="left_btorso" transform="translate(45 573.46933) scale(1 -1)"><path d="M 0 0 L 0 498.3611 A 310.54397 310.54397 0 0 1 133.39173 528.46933 L 176.95208 510.98807 C 153.31398 406.26962 133.22559 342.49463 208.41635 314.13689 L 208.41635 0 L 0 0 Z" fill="#d5b48b" stroke="#dae4e7" stroke-width="2"/></g><g data-panel="left_ftorso" transform="translate(298.41635 573.46933) scale(1 -1)"><path d="M 0 0 L 271.86318 0 L 271.86318 314.1369 C 186.8056 320.09068 185.06141 388.94151 177.7061 499.81258 C 177.46203 503.49173 177.21177 507.21715 176.95208 510.98807 L 133.39173 528.46933 A 134.53217 134.53217 0 0 0 0 376.45716 L 0 0 Z" fill="#96b8c2" stroke="#dae4e7" stroke-width="2"/></g><g data-panel="left_sleeve_b" transform="translate(1101.91253 45) scale(1 -1)"><path d="M 0 0 L 0 -213.87896 L -401.00477 -213.87896 C -424.7369 -142.21313 -484.81842 -106.01959 -486.63299 -11.22886 C -486.66148 -7.39173 -486.61893 -3.6505 -486.50917 0 L 0 0 Z" fill="#b4c59b" stroke="#dae4e7" stroke-width="2"/></g><g data-panel="left_sleeve_f" transform="translate(531.50917 638.46933) scale(1 -1)"><path d="M 0 0 L -486.50917 0 C -483.33744 -105.48958 -424.04242 -135.21422 -401.00477 -213.87896 L 0 -213.87896 L 0 0 Z" fill="#bf9fb8" stroke="#dae4e7" stroke-width="2"/></g><g data-panel="right_btorso" transform="translate(795.34634 1179.20155) scale(1 -1)"><path d="M 0 0 L -218.83717 0 L -218.83717 318.31888 C -141.56224 343.02934 -158.52439 408.36745 -176.95208 515.17006 L -113.25552 540.73222 A 172.54827 172.54827 0 0 1 0 498.3611 L 0 0 Z" fill="#c6c0a0" stroke="#dae4e7" stroke-width="2"/></g><g data-panel="right_ftorso" transform="translate(1125.80268 1180.47464) scale(1 -1)"><path d="M 0 0 L 0 376.45716 A 121.51451 121.51451 0 0 0 -113.25552 542.00531 L -176.95208 516.44316 C -191.83397 396.31672 -194.85757 320.98573 -285.45634 319.59198 L -285.45634 0 L 0 0 Z" fill="#91b6ab" stroke="#dae4e7" stroke-width="2"/></g></svg>