<svg xmlns="http://www.w3.org/2000/svg" viewBox="0 0 1212.57715 1789.27876" width="1212.57715mm" height="1789.27876mm" role="img" aria-label="实际二维纸样缩略图"><rect width="100%" height="100%" fill="#18252d"/><g data-panel="left_btorso" transform="translate(45 585.73222) scale(1 -1)"><path d="M 0 0 L 0 498.3611 A 172.54827 172.54827 0 0 1 113.25552 540.73222 L 176.95208 515.17006 C 158.52439 408.36745 141.56224 343.02934 218.83717 318.31888 L 218.83717 0 L 0 0 Z" fill="#d5b48b" stroke="#dae4e7" stroke-width="2"/></g><g data-panel="left_ftorso" transform="translate(308.83717 587.00531) scale(1 -1)"><path d="M 0 0 L 285.45634 0 L 285.45634 319.59198 C 198.3735 320.93164 192.20054 390.58123 178.63691 502.66177 C 178.08929 507.18697 177.52961 511.78133 176.95208 516.44316 L 113.25552 542.00531 A 121.51451 121.51451 0 0 0 0 376.45716 L 0 0 Z" fill="#96b8c2" stroke="#dae4e7" stroke-width="2"/></g><g data-panel="left_sleeve_b" transform="translate(1167.57715 45) scale(1 -1)"><path d="M 0 0 L 0 -217.91607 L -441.13893 -217.91607 C -467.79841 -147.40396 -524.97943 -115.8038 -528.28364 -13.91969 C -528.31563 -9.1417 -528.24708 -4.50476 -528.08433 0 L 0 0 Z" fill="#b4c59b" stroke="#dae4e7" stroke-width="2"/></g><g data-panel="left_sleeve_f" transform="translate(573.08433 652.00531) scale(1 -1)"><path d="M 0 0 L -528.08433 0 C -524.18753 -107.85755 -466.2842 -139.937 -441.13893 -217.91607 L 0 -217.91607 L 0 0 Z" fill="#bf9fb8" stroke="#dae4e7" stroke-width="2"/></g><g data-panel="right_btorso" transform="translate(836.9215 1192.73753) scale(1 -1)"><path d="M 0 0 L -218.83717 0 L -218.83717 318.31888 C -141.56224 343.02934 -158.52439 408.36745 -176.95208 515.17006 L -113.25552 540.73222 A 172.54827 172.54827 0 0 1 0 498.3611 L 0 0 Z" fill="#c6c0a0" stroke="#dae4e7" stroke-width="2"/></g><g data-panel="right_ftorso" transform="translate(1167.37784 1194.01062) scale(1 -1)"><path d="M 0 0 L 0 376.45716 A 121.51451 121.51451 0 0 0 -113.25552 542.00531 L -176.95208 516.44316 C -177.52961 511.78133 -178.08929 507.18697 -178.63691 502.66177 C -192.20054 390.58123 -198.3735 320.93164 -285.45634 319.59198 L -285.45634 0 L 0 0 Z" fill="#91b6ab" stroke="#dae4e7" stroke-width="2"/></g><g data-panel="right_sleeve_b" transform="translate(45 1259.01062) scale(1 -1)"><path d="M 0 0 L 528.08433 0 C 528.24708 -4.50476 528.31563 -9.1417 528.28364 -13.91969 C 524.97943 -115.8038 467.79841 -147.40396 441.13893 -217.91607 L 0 -217.91607 L 0 0 Z" fill="#d5b48b" stroke="#dae4e7" stroke-width="2"/></g><g data-panel="right_sleeve_f" transform="translate(618.28364 1259.01062) scale(1 -1)"><path d="M 0 0 L 0 -217.91607 L 441.13893 -217.91607 C 466.2842 -139.937 524.18753 -107.85755 528.08433 0 L 0 0 Z" fill="#96b8c2" stroke="#dae4e7" stroke-width="2"/></g><g data-panel="sl_left_cuff_skirt_b" transform="translate(350.08249 1600.60272) scale(1 -1)"><path d="M 0 0 L -305.08249 0 L -261.49928 58.67604 L -43.58321 58.67604 L 0 0 Z" fill="#b4c59b" stroke="#dae4e7" stroke-width="2"/></g><g data-panel="sl_left_cuff_skirt_f" transform="translate(700.16498 1600.60272) scale(1 -1)"><path d="M 0 0 L -43.58321 58.67604 L -261.49928 58.67604 L -305.08249 0 L 0 0 Z" fill="#bf9fb8" stroke="#dae4e7" stroke-width="2"/></g><g data-panel="sl_right_cuff_skirt_b" transform="translate(745.16498 1600.60272) scale(1 -1)"><path d="M 0 0 L 43.58321 58.67604 L 261.49928 58.67604 L 305.08249 0 L 0 0 Z" fill="#c6c0a0" stroke="#dae4e7" stroke-width="2"/></g><g data-panel="sl_right_cuff_skirt_f" transform="translate(45 1724.27876) scale(1 -1)"><path d="M 0 0 L 305.08249 0 L 261.49928 58.67604 L 43.58321 58.67604 L 0 0 Z" fill="#91b6ab" stroke="#dae4e7" stroke-width="2"/></g></svg>