<svg xmlns="http://www.w3.org/2000/svg" viewBox="0 0 1307.0853 1659.50674" width="1307.0853mm" height="1659.50674mm" role="img" aria-label="实际二维纸样缩略图"><rect width="100%" height="100%" fill="#18252d"/><g data-panel="skirt_back" transform="translate(45 472.64818) scale(1 -1)"><path d="M 0 0 L 0 217.65204 Q 0 323.08153 19.21332 427.64818 L 86.76025 427.64818 L 104.24225 266.59721 L 121.72426 427.64818 L 156.22342 427.64818 L 173.70543 248.50246 L 191.18743 427.64818 L 294.68492 427.64818 L 312.16692 248.50246 L 329.64893 427.64818 L 364.14809 427.64818 L 381.6301 266.59721 L 399.11211 427.64818 L 466.65903 427.64818 Q 485.87235 323.08153 485.87235 217.65204 L 485.87235 0 L 0 0 Z" fill="#d5b48b" stroke="#dae4e7" stroke-width="2"/></g><g data-panel="skirt_back_0" transform="translate(575.87235 247.10546) scale(1 -1)"><path d="M 0 0 L 0 202.10546 L 631.63406 202.10546 L 631.63406 0 L 0 0 Z" fill="#96b8c2" stroke="#dae4e7" stroke-width="2"/></g><g data-panel="skirt_back_1" transform="translate(45 739.75365) scale(1 -1)"><path d="M 0 0 L 0 202.10546 L 821.12427 202.10546 L 821.12427 0 L 0 0 Z" fill="#b4c59b" stroke="#dae4e7" stroke-width="2"/></g><g data-panel="skirt_front" transform="translate(45 1222.40201) scale(1 -1)"><path d="M 0 0 L 509.60231 0 L 509.60231 217.65204 Q 509.6023 318.06108 491.3039 417.64837 L 330.79224 417.64837 L 330.1142 257.65274 L 329.43615 417.64837 L 180.16616 417.64837 L 179.48811 257.65274 L 178.81007 417.64837 L 18.2984 417.64837 Q 0 318.06108 0 217.65204 L 0 0 Z" fill="#bf9fb8" stroke="#dae4e7" stroke-width="2"/></g><g data-panel="skirt_front_0" transform="translate(599.60231 1006.85911) scale(1 -1)"><path d="M 0 0 L 662.483 0 L 662.483 202.10546 L 0 202.10546 L 0 0 Z" fill="#c6c0a0" stroke="#dae4e7" stroke-width="2"/></g><g data-panel="skirt_front_1" transform="translate(45 1489.50748) scale(1 -1)"><path d="M 0 0 L 861.2279 0 L 861.2279 202.10546 L 0 202.10546 L 0 0 Z" fill="#91b6ab" stroke="#dae4e7" stroke-width="2"/></g><g data-panel="wb_back" transform="translate(951.2279 1327.40128) scale(1 -1)"><path d="M 0 0 L 0 39.99927 L 307.58965 39.99927 L 307.58965 0 L 240.04273 0 L 205.54356 0 L 102.04608 0 L 67.54692 0 L 0 0 Z" fill="#d5b48b" stroke="#dae4e7" stroke-width="2"/></g><g data-panel="wb_front" transform="translate(45 1594.50674) scale(1 -1)"><path d="M 0 0 L 160.51167 0 L 309.78166 0 L 470.29333 0 L 470.29333 39.99927 L 0 39.99927 L 0 0 Z" fill="#96b8c2" stroke="#dae4e7" stroke-width="2"/></g></svg>