<svg xmlns="http://www.w3.org/2000/svg" viewBox="0 0 1185.55907 593.82264" width="1185.55907mm" height="593.82264mm" role="img" aria-label="实际二维纸样缩略图"><rect width="100%" height="100%" fill="#18252d"/><g data-panel="left_btorso" transform="translate(45 469.87618) scale(1 -1)"><path d="M 0 0.90996 L 0 386.68706 A 187.03261 187.03261 0 0 1 113.25552 424.87618 L 176.95208 399.31403 C 153.31398 294.59559 133.22559 230.82059 208.41635 202.46285 L 208.41635 154.1959 L 199.31277 -20 Q 165.4622 -12.41516 131.4185 -7.37023 L 137.15856 141.54302 L 108.80975 -4.75957 Q 91.64292 -2.96551 74.44508 -1.73916 L 73.04195 163.83693 L 51.72748 -0.36753 Q 25.89862 0.90996 0 0.90996 Z" fill="#d5b48b" stroke="#dae4e7" stroke-width="2"/></g><g data-panel="left_ftorso" transform="translate(298.41635 528.82264) scale(1 -1)"><path d="M 0 0 L 74.635 0 L 86.87384 156.29786 L 99.11268 0 L 259.62434 0 L 271.86318 174.1959 L 125.22943 193.66913 L 271.86318 213.14236 L 254.63216 262.06984 C 169.86904 273.67597 175.59892 344.63022 175.30615 458.92102 L 113.25552 483.82264 A 113.90171 113.90171 0 0 0 0 357.80536 L 0 0 Z" fill="#96b8c2" stroke="#dae4e7" stroke-width="2"/></g><g data-panel="right_btorso" transform="translate(823.69589 469.87618) scale(1 -1)"><path d="M 0 0.90996 Q -25.89862 0.90996 -51.72748 -0.36753 L -73.04195 163.83693 L -74.44508 -1.73916 Q -91.64292 -2.96551 -108.80975 -4.75957 L -137.15856 141.54302 L -131.4185 -7.37023 Q -165.4622 -12.41516 -199.31277 -20 L -208.41635 154.1959 L -208.41635 202.46285 C -133.22559 230.82059 -153.31398 294.59559 -176.95208 399.31403 L -113.25552 424.87618 A 187.03261 187.03261 0 0 1 0 386.68706 L 0 0.90996 Z" fill="#b4c59b" stroke="#dae4e7" stroke-width="2"/></g><g data-panel="right_ftorso" transform="translate(1140.55907 528.82264) scale(1 -1)"><path d="M 0 0 L 0 357.80536 A 113.90171 113.90171 0 0 0 -113.25552 483.82264 L -175.30615 458.92102 C -175.59892 344.63022 -169.86904 273.67597 -254.63216 262.06984 L -271.86318 213.14236 L -125.22943 193.66913 L -271.86318 174.1959 L -259.62434 0 L -99.11268 0 L -86.87384 156.29786 L -74.635 0 L 0 0 Z" fill="#bf9fb8" stroke="#dae4e7" stroke-width="2"/></g></svg>